<svg xmlns="http://www.w3.org/2000/svg" enable-background="new 0 0 64 64" viewBox="0 0 64 64" id="cake"><path fill="#e2dede" d="M1,26c1.41,2.15,7.63,8,30.98,8c0.01,0,0.01,0,0.02,0c23.37,0,29.59-5.85,31-8v23.74c-1.65-0.1-3.85,0.3-6.19,2.26c-3.77,3.16-6.4,2.61-7.38,2.22c-0.79-0.32-1.62-0.56-2.47-0.57c-1.6-0.02-4,0.46-6.7,2.72c-2.67,2.24-4.91,2.2-6.38,1.71c-0.91-0.3-1.68-0.93-2.29-1.67C30.75,55.38,28.5,53.5,24,55c-3.38,1.13-5.81,0.67-7.28,0.05c-0.77-0.32-1.43-0.83-2.04-1.41C13.91,52.91,11.67,51.44,7,53c-2.54,0.85-4.54,0.62-6,0.08V26z"></path><path fill="#d3bebe" d="M63,26v23.74c-1.65-0.1-3.85,0.3-6.19,2.26c-3.58,3-6.13,2.66-7.22,2.28c5.07-2.82,8.41-8.22,8.41-14.3V29.86C61.04,28.39,62.43,26.88,63,26z"></path><path fill="#e02b4f" d="M50 25.5c0 1.19-5.98 2.19-14 2.44C35.97 25.76 34.19 24 32 24c2.18 0 4.22-.31 5.97-.86C44.97 23.48 50 24.41 50 25.5zM32 24c-2.19 0-3.97 1.76-4 3.94-8.02-.25-14-1.25-14-2.44 0-1.09 5.02-2.29 12.03-2.36C27.78 23.69 29.82 24 32 24z"></path><ellipse cx="32" cy="25.5" fill="#c90030" rx="11" ry=".5"></ellipse><path fill="#9e7059" d="M12 24c0 2.21-1.79 4-4 4s-4-1.79-4-4c0-.27.03-.53.08-.78C4.44 21.38 6.06 20 8 20c.77 0 1.49.22 2.1.6C11.24 21.3 12 22.56 12 24zM36 27.94c0 .02 0 .04 0 .06 0 2.21-1.79 4-4 4s-4-1.79-4-4c0-.02 0-.04 0-.06.03-2.18 1.81-3.94 4-3.94S35.97 25.76 36 27.94z"></path><path fill="#e2dede" d="M36 27.94c0 .02 0 .04 0 .06 0 1.068-.425 2.033-1.107 2.75 3.164-.882 6.21-2.002 9.047-3.377C41.717 27.648 39.002 27.846 36 27.94zM53.9 20.6c-.015-.005-.031-.009-.045-.013-.061.059-.122.116-.183.175C53.747 20.707 53.82 20.649 53.9 20.6z"></path><path fill="#9e7059" d="M63 49.74V55c0 4.42-13.88 8-31 8S1 59.42 1 55v-1.92c1.46.54 3.46.77 6-.08 4.67-1.56 6.91-.09 7.68.64.61.58 1.27 1.09 2.04 1.41 1.47.62 3.9 1.08 7.28-.05 4.5-1.5 6.75.38 7.59 1.41.61.74 1.38 1.37 2.29 1.67 1.47.49 3.71.53 6.38-1.71 2.7-2.26 5.1-2.74 6.7-2.72.85.01 1.68.25 2.47.57.98.39 3.61.94 7.38-2.22C59.15 50.04 61.35 49.64 63 49.74zM44 17.5c0 .38-.06.75-.18 1.11-.61 1.94-2.81 3.59-5.85 4.53C36.22 23.69 34.18 24 32 24s-4.22-.31-5.97-.86c-3.04-.94-5.24-2.59-5.85-4.53C20.06 18.25 20 17.88 20 17.5c0-3.59 5.37-6.5 12-6.5S44 13.91 44 17.5z"></path><path fill="#995b3f" d="M44,17.5c0,0.38-0.06,0.75-0.18,1.11c-0.61,1.94-2.81,3.59-5.85,4.53C36.22,23.69,34.18,24,32,24s-4.22-0.31-5.97-0.86c-3.04-0.94-5.24-2.59-5.85-4.53c-0.05-0.15-0.09-0.31-0.12-0.47c1.02,0.82,2.38,1.51,3.97,2C25.78,20.69,27.82,21,30,21s4.22-0.31,5.97-0.86c3.04-0.94,5.24-2.59,5.85-4.53C41.94,15.25,42,14.88,42,14.5c0-0.22-0.02-0.43-0.06-0.65C43.24,14.89,44,16.15,44,17.5z"></path><path fill="#9e7059" d="M59.92,23.22C59.97,23.47,60,23.73,60,24c0,2.21-1.79,4-4,4s-4-1.79-4-4c0-1.44,0.76-2.7,1.9-3.4c0.61-0.38,1.33-0.6,2.1-0.6C57.94,20,59.56,21.38,59.92,23.22z"></path><path fill="#995b3f" d="M60 24c0 2.21-1.79 4-4 4-1.62 0-3.02-.97-3.64-2.36C52.86 25.87 53.42 26 54 26c2.21 0 4-1.79 4-4 0-.27-.03-.53-.08-.78-.06-.31-.16-.6-.28-.88 1.16.53 2.03 1.59 2.28 2.88C59.97 23.47 60 23.73 60 24zM36 28c0 2.21-1.79 4-4 4-1.62 0-3.02-.97-3.64-2.36C28.86 29.87 29.42 30 30 30c2.21 0 4-1.79 4-4 0-.27-.03-.53-.08-.78-.06-.31-.16-.6-.28-.88 1.16.53 2.03 1.59 2.28 2.88C35.97 27.47 36 27.73 36 28zM12 24c0 2.21-1.79 4-4 4-1.62 0-3.02-.97-3.64-2.36C4.86 25.87 5.42 26 6 26c2.21 0 4-1.79 4-4 0-.27-.03-.53-.08-.78-.06-.31-.16-.6-.28-.88 1.16.53 2.03 1.59 2.28 2.88C11.97 23.47 12 23.73 12 24z"></path><path fill="#d3bebe" d="M10 45c-.488 0-.895-.35-.982-.812C8.94 44.135 8.676 44 8 44c-2.966 0-3-1.918-3-2 0-.553.448-1 1-1 .488 0 .895.35.982.812C7.06 41.865 7.324 42 8 42c2.966 0 3 1.918 3 2C11 44.553 10.552 45 10 45zM7 42h.01H7zM22.22 43.27c-.349 0-.68-.185-.861-.491-.088-.025-.383-.064-1.023.164-2.784.988-3.468-.795-3.496-.871-.188-.52.081-1.093.6-1.281.46-.164.962.025 1.202.432.089.025.384.065 1.023-.164 2.783-.989 3.468.795 3.496.871.188.52-.081 1.093-.6 1.281C22.448 43.25 22.333 43.27 22.22 43.27zM21.281 42.613C21.281 42.613 21.281 42.613 21.281 42.613S21.281 42.613 21.281 42.613zM21.28 42.61c0 0 0 .001.001.002C21.28 42.611 21.28 42.61 21.28 42.61zM18.719 41.388c0 .001 0 .002.001.002C18.72 41.39 18.72 41.389 18.719 41.388zM18.719 41.386C18.719 41.387 18.719 41.387 18.719 41.386 18.719 41.387 18.719 41.387 18.719 41.386zM50.22 45.27c-.349 0-.68-.185-.861-.491-.088-.024-.383-.065-1.023.164-2.782.988-3.468-.795-3.496-.871-.188-.52.081-1.093.6-1.281.46-.163.962.025 1.202.432.089.024.384.065 1.023-.164 2.782-.989 3.468.795 3.496.871.188.52-.081 1.093-.6 1.281C50.448 45.25 50.333 45.27 50.22 45.27zM49.281 44.613C49.281 44.613 49.281 44.613 49.281 44.613S49.281 44.613 49.281 44.613zM49.28 44.61c0 0 0 .001.001.002C49.28 44.611 49.28 44.61 49.28 44.61zM46.719 43.388c0 .001 0 .002.001.002C46.72 43.39 46.72 43.389 46.719 43.388zM46.719 43.386C46.719 43.387 46.719 43.387 46.719 43.386 46.719 43.387 46.719 43.387 46.719 43.386zM53.5 38.58c-1.032 0-1.519-.696-1.549-.74-.309-.458-.188-1.08.27-1.389.405-.272.94-.21 1.271.127.066-.005.385-.03.952-.409 2.461-1.646 3.559-.076 3.605-.009.309.458.188 1.08-.27 1.389-.406.272-.939.21-1.271-.127-.086-.016-.385.029-.952.409C54.716 38.393 54.035 38.58 53.5 38.58zM56.391 37.279C56.392 37.279 56.392 37.28 56.391 37.279 56.392 37.28 56.392 37.279 56.391 37.279zM53.608 36.72C53.608 36.72 53.608 36.721 53.608 36.72 53.608 36.721 53.608 36.72 53.608 36.72zM32.5 49.58c-1.032 0-1.519-.696-1.549-.74-.309-.458-.188-1.08.27-1.389.405-.272.939-.21 1.271.127.063-.016.385-.03.952-.409 2.46-1.646 3.56-.075 3.605-.009.309.458.188 1.08-.27 1.389-.405.272-.939.21-1.271-.127-.09-.007-.386.03-.952.409C33.716 49.393 33.035 49.58 32.5 49.58zM35.391 48.279C35.392 48.279 35.392 48.28 35.391 48.279 35.392 48.28 35.392 48.279 35.391 48.279zM32.608 47.72C32.608 47.72 32.608 47.721 32.608 47.72 32.608 47.721 32.608 47.72 32.608 47.72z"></path><path fill="#fff" d="M5.567,32.975c-1.483-0.763-2.852,2.631-1.367,3.395c0.702,0.361,0.715-0.69,1.198-1.388C5.935,34.207,6.349,33.378,5.567,32.975z"></path><path fill="#c6998b" d="M24.567,14.975c-1.483-0.763-2.852,2.631-1.367,3.395c0.702,0.361,0.715-0.69,1.198-1.388C24.935,16.207,25.349,15.378,24.567,14.975z"></path><path fill="#fff" d="M4.208,36.876C3.461,36.868,3.338,37.993,4.087,38C4.834,38.007,4.956,36.883,4.208,36.876z"></path><path fill="#c6998b" d="M6.467 22.304c-1.287 0-1.289 2 0 2C7.754 24.304 7.756 22.304 6.467 22.304zM30.63 26.804c-1.287 0-1.289 2 0 2C31.917 28.804 31.919 26.804 30.63 26.804zM54.793 22.206c-1.287 0-1.289 2 0 2C56.08 24.206 56.083 22.206 54.793 22.206z"></path><path fill="#995b3f" d="M34 16h-4c-.552 0-1-.447-1-1s.448-1 1-1h4c.552 0 1 .447 1 1S34.552 16 34 16zM37 19H27c-.552 0-1-.447-1-1s.448-1 1-1h10c.552 0 1 .447 1 1S37.552 19 37 19z"></path><path fill="#c6998b" d="M10.283 54.098c-1.287 0-1.289 2 0 2C11.57 56.098 11.572 54.098 10.283 54.098zM45.109 55.467c-1.287 0-1.289 2 0 2C46.396 57.467 46.398 55.467 45.109 55.467z"></path><path fill="#e2dede" d="M59.98,23.59C59.99,23.73,60,23.86,60,24c0,2.21-1.79,4-4,4s-4-1.79-4-4c0-1.32,0.64-2.49,1.62-3.21c-2.58-0.83-5.81-1.58-9.82-2.1c-0.65,1.91-2.83,3.52-5.83,4.45c7,0.34,12.03,1.27,12.03,2.36c0,1.19-5.98,2.19-14,2.44c0,0.02,0,0.04,0,0.06c0,2.21-1.79,4-4,4s-4-1.79-4-4c0-0.02,0-0.04,0-0.06c-8.02-0.25-14-1.25-14-2.44c0-1.09,5.02-2.29,12.03-2.36c-3-0.93-5.18-2.54-5.83-4.45c-4.01,0.52-7.24,1.27-9.82,2.1C11.36,21.51,12,22.68,12,24c0,2.21-1.79,4-4,4s-4-1.79-4-4c0-0.27,0.03-0.53,0.08-0.78c-2.3,1.42-2.99,2.62-3.07,2.77C1,26,1,26,1,26c1.41,2.15,7.63,8,30.98,8c0.01,0,0.01,0,0.02,0c23.37,0,29.59-5.85,31-8C63,26,62.2,24.94,59.98,23.59z"></path><path fill="#d3bebe" d="M59.98,23.59C59.99,23.73,60,23.86,60,24c0,2.21-1.79,4-4,4s-4-1.79-4-4c0-1.32,0.64-2.49,1.62-3.21c-0.47-0.151-0.97-0.299-1.484-0.444c-1.186,1.56-2.518,2.904-3.972,4.055C49.335,24.733,50,25.106,50,25.5c0,0.8-2.713,1.514-6.926,1.972c-2.342,1.066-4.868,1.815-7.513,2.315C34.903,31.095,33.564,32,32,32c-1.232,0-2.32-0.568-3.053-1.443c-8.497,0.434-17.595-0.92-25.463-2.164C7.084,30.907,15.001,34,31.98,34c0.01,0,0.01,0,0.02,0c23.37,0,29.59-5.85,31-8C63,26,62.2,24.94,59.98,23.59z"></path><path fill="#995b3f" d="M63,49.74V55c0,4.42-13.88,8-31,8S1,59.42,1,55v-0.65l21.66,2.55c3.29,0.39,6.59,0.54,9.89,0.46c0.4,0.31,0.85,0.56,1.33,0.72c1.37,0.46,3.41,0.52,5.84-1.29c0.53-0.06,1.05-0.14,1.58-0.22l2.84-0.44c1.96-0.3,3.8-0.94,5.45-1.85c1.09,0.38,3.64,0.72,7.22-2.28C59.15,50.04,61.35,49.64,63,49.74z"></path></svg>