<svg xmlns="http://www.w3.org/2000/svg" viewBox="0 0 512 512" id="food-delivery-man"><path fill="#f22e24" d="M256 507.1c92.6 0 173.5-50.1 217-124.7-43.2-75-124.2-125.5-217-125.5S82.2 307.3 39 382.4C82.5 457 163.4 507.1 256 507.1z"></path><path fill="#f4756e" d="M78.5 330.7c-15.3 15.4-28.6 32.7-39.5 51.7 10.9 18.7 24.2 35.9 39.5 51.2V330.7z"></path><path fill="#731611" d="M381.5 290.6v136c0 16.7-13.6 30.5-30.3 30.5h-246c42 31.4 94.2 50.1 150.7 50.1 92.6 0 173.5-50.2 217-124.8-21.8-38-53.4-69.8-91.4-91.8z"></path><path fill="#f29f18" d="m255.9 297.2-28.5-28.5v-39.8h56.9v39.8zM324.6 155.1h24.5c13.5 0 24.5-11 24.5-24.5s-11-24.5-24.5-24.5h-24.5v49zm-137.3 0h-24.5c-13.5 0-24.5-11-24.5-24.5s11-24.5 24.5-24.5h24.5v49z"></path><path fill="#f4bc62" d="M256 238.8c-44.4 0-80.4-36-80.4-80.4v-55.9c0-44.4 36-80.4 80.4-80.4 44.4 0 80.4 36 80.4 80.4v55.9c0 44.4-36 80.4-80.4 80.4z"></path><path fill="#f29f18" d="M255.8 22h.1c-4.2 0-8.2.4-12.2 1 38.6 5.9 68.3 39.3 68.3 79.5v55.9c0 40.3-29.6 73.7-68.2 79.6 4 .6 8.1 1 12.2 1h-.2c44.4 0 80.2-36.2 80.2-80.6v-55.9c0-44.4-35.8-80.5-80.2-80.5z"></path><path fill="#595959" d="M211 115h25v10h-25zM231 135h10v19h-10zM276 115h25v10h-25zM271 135h10v19h-10z"></path><path fill="#734b0b" d="M256 196.2c-13.5 0-24.5-11-24.5-24.5h9.8c0 8.1 6.6 14.7 14.7 14.7s14.7-6.6 14.7-14.7h9.8c0 13.5-11 24.5-24.5 24.5zM344.3 125.7h9.8v9.8h-9.8zM157.9 125.7h9.8v9.8h-9.8z"></path><path fill="#595959" d="M193.2 16.7v71c0 10.2-8.3 18.5-18.5 18.5h-12.4V47.5c.1-17 13.9-30.8 30.9-30.8zm125.2 0v71c0 10.2 8.3 18.5 18.5 18.5h12.4V47.5c-.1-17-13.9-30.8-30.9-30.8z"></path><path fill="#731611" d="M201.4 4.9h108.8c21.5 0 39 17.5 39 39v44.9H162.4V43.9c0-21.5 17.5-39 39-39z"></path><path fill="#f22e24" d="M201.4 4.9h68.4c21.5 0 39 17.5 39 39v44.4H162.4V43.9c0-21.5 17.5-39 39-39z"></path><path fill="#f22e24" d="M200.7 50H311c21.1 0 38.3 17.1 38.3 38.3H162.4c0-21.2 17.1-38.3 38.3-38.3z"></path><path fill="#f4756e" d="M200.7 50h69.9c21.1 0 38.3 17.1 38.3 38.3H162.4c0-21.2 17.1-38.3 38.3-38.3z"></path><path fill="#fff" d="M256 21.6c-15.7 0-28.4 11.4-28.4 28.4h56.9c-.1-17-12.8-28.4-28.5-28.4z"></path><path fill="#f4756e" d="M255.9 297.2 234.1 319l-51.2-51.3c14.4-4.4 29-7.5 44.6-9.2v10.2l28.4 28.5zm72.9-29.6-51.3 51.2-21.5-21.6 28.5-28.5v-10.2c14.6 1.6 30 4.7 44.3 9.1z"></path><path fill="#ebdee5" d="M382 455H130v18.5c37 21.4 80.3 33.6 126 33.6s89-12.2 126-33.6V455zM130.4 402.1h251.1v52.5H130.4z"></path><path fill="#ebdee5" d="M130.4 349.7h251.1v52.5H130.4z"></path><path fill="#fff" d="M130 473.5c10 5.6 20.4 11.5 30.9 14.5h76.3c18.7 0 33.8-14 33.8-33H130v18.5zM237.2 436H130.4v-33.8H271c0 18.6-15.1 33.8-33.8 33.8zm0-52.5H130.4v-33.8H271c0 18.7-15.1 33.8-33.8 33.8z"></path><path fill="#c6bec3" d="M291.6 349.7h-71.3c0 14.5 11.7 26.2 26.2 26.2h18.8c14.6 0 26.3-11.7 26.3-26.2zm0 104.9h-71.3c0 14.5 11.7 26.2 26.2 26.2h18.8c14.6.1 26.3-11.7 26.3-26.2zm0-52.5h-71.3c0 14.5 11.7 26.2 26.2 26.2h18.8c14.6.1 26.3-11.7 26.3-26.2z"></path></svg>